<svg xmlns="http://www.w3.org/2000/svg" width="50" height="25" viewBox="0 0 50 25">
  <path d="M13.5 12.5c0-1.7-1.3-3-3-3s-3 1.3-3 3 1.3 3 3 3 3-1.3 3-3zm9 0c0-1.7-1.3-3-3-3s-3 1.3-3 3 1.3 3 3 3 3-1.3 3-3zm9 0c0-1.7-1.3-3-3-3s-3 1.3-3 3 1.3 3 3 3 3-1.3 3-3z" fill="#635BFF"/>
  <path d="M38.5 17.5h-27c-1.1 0-2-.9-2-2v-6c0-1.1.9-2 2-2h27c1.1 0 2 .9 2 2v6c0 1.1-.9 2-2 2z" fill="none" stroke="#635BFF" stroke-width="2"/>
  <text x="15.5" y="14.5" font-family="Arial, sans-serif" font-size="8" font-weight="bold" fill="#635BFF">LINK</text>
</svg> 