<svg xmlns="http://www.w3.org/2000/svg" width="40" height="25" viewBox="0 0 40 25">
  <rect width="40" height="25" rx="4" fill="#ffffff"/>
  <path d="M17.5 8l-2.85 9h-3.4L8.9 10.18c-.1-.413-.2-.564-.52-.737C7.823 9.11 6.5 8.67 5.5 8.4L5.58 8h5.28c.673 0 1.28.45 1.433 1.225l1.307 6.948L15.93 8H17.5zm13.5 6.075c0-2.362-3.264-2.49-3.245-3.544.006-.32.313-.66.983-.747a4.386 4.386 0 012.261.395l.404-1.89a6.249 6.249 0 00-2.14-.393c-2.264 0-3.853 1.203-3.867 2.926-.016 1.275 1.136 1.984 2.004 2.41.89.433 1.186.71 1.182.1-.007.543-.71.783-1.366.792-1.15.015-1.816-.31-2.35-.557l-.414 1.94c.534.244 1.52.457 2.542.468 2.4 0 3.973-1.19 3.98-3.03zm6-6.075l-1.684 9h-2.72l1.683-9h2.72zM30 8L27.85 14.12l-.257-1.235L26.5 9.5c-.184-.705-.726-1.5-1.726-1.5H20.5l-.1.34c1.142.278 2.178.68 3.414 1.24L26 17h3.5L33 8h-3z" fill="#171E6A"/>
</svg> 